<svg viewBox="0 0 100 25.038">
  <path fill="#39d" d="M23.019 2.223l-.613 4.012q-1.788 1.788-5.748 5.493-3.782 3.551-5.723 5.518 2.963-.076 8.967-.434 0 1.047-.536 4.93l-.307.282q-.97.051-6.49.383l-12.34.792-.23-.204.307-3.96L13.03 7.359 2.401 7.052q-.051-.409-.051-.92 0-.792.204-2.555.18-1.66.154-2.555.51-.434 1.38-.434.23 0 .715.051.485.026.715.026h1.253q1.149 0 2.145.076l13.797 1.201zm6.311-.383q-.383 2.938-.383 7.512l-.026 6.157q.026 1.175-.05 3.5l-.282.153-4.47.103q-.563-.358-.563-1.125 0-.332.102-1.021.102-.716.102-1.1 0-.255.103-1.839.46-7.92.46-9.249 0-1.61-.103-3.014.128-.205.946-.46.23.05.766.05.281 0 .869-.025.587-.025.894-.025 1.047 0 1.635.383zm14.154 5.442q0 .562-.05 1.175-1.023.307-5.162.46-.255-.23-.408-1.43-.154-1.023-.716-1.15h-.409q-1.967 0-2.58.383-.818.51-.818 2.81v.46q.026.281.026.435 0 .536-.102 1.584-.077 1.047-.077 1.584 0 2.606 1.559 3.347.613.28 1.584.28 1.277 0 1.865-.485.74-.613.715-1.303v-.076l-.255-.281h-2.173q-1.073 0-1.533-.46v-4.37l.255-.28q2.453.204 7.052.46l.256.28q.025.333.127 2.096.102 1.277.102 2.095 0 2.785-1.226 4.037-1.788 1.84-5.084 1.84-2.734 0-4.574-1.38-1.175-.87-1.584-2.504-.28-1.074-.28-3.015V12.085q0-5.212.306-6.872.204-1.201.945-2.223.818-1.15 1.712-1.354.307-.077 2.376-.384Q37.505.946 38.22.946q1.687 0 2.913.51.358.154.383.18.486.46.997.996.05.051.23.485.74 1.687.74 4.165zM59.989.946q0 .153-.127 1.047-.154 1.022-.307 4.012-.23 3.909-.23 8.737 0 .486.102 9.71l-.51.433-4.702-.153-.383-.383q-1.15-4.165-4.599-12.698v.639q0 1.941.256 4.624.204 1.737.485 5.136-.894.562-2.53.562-.46 0-1.405-.077-.92-.051-1.354-.051l-.357-.332q.434-6.618.434-13.746 0-3.091-.077-6.208.435-.46 1.354-.46.18 0 .486.025.332.026.51.026.384 0 1.15-.153.793-.18 1.176-.18.332 0 .613.103.562.843.97 2.35.64 2.3.69 2.453.46 1.329.946 2.683.562 1.533 1.124 2.606.128-1.43.128-3.22 0-1.302-.102-3.883-.103-2.606-.103-3.909 0-.28.41-.46.127-.025.408-.102L54.649 0h5.136q.204.358.204.946zm15.636 12.289q0 3.705-.332 6.694-.638 1.252-.996 1.533-.588.28-1.533.766-1.354.69-3.27.69-.792 0-2.3-.102-.23-.051-.664-.128-.434-.076-1.789-.332-2.248-.409-3.193-1.175-1.227-.997-1.227-3.117 0-.562.103-1.686.102-1.125.102-1.687v-.357q-.026-.23-.026-.358 0 .051.153-1.916l.282-4.037q.255-3.551 1.047-5.698.639-.536 1.712-.536.587 0 1.047.128.741.204.741.613 0 2.376-.153 6.26-.204 4.854-.23 6.233v.128q-.025.537.281 1.022.307.486.843.613.435.103 1.176.103 1.226 0 1.43-.741.077-.281.077-2.147 0-1.047-.102-3.142-.077-2.095-.077-3.143 0-3.014.537-5.263 1.354-.613 2.912-.613 1.66 0 2.887.69.205.562.205 1.482 0 .715.102 2.248.255 3.5.255 6.975zm24.374 11.267l-.153.23h-.74q-2.402.026-4.472-.306-.306-.486-.306-1.278 0-.715-.128-2.07-.128-2.018-.281-4.036-.154-2.402-.537-3.986-.664 1.66-1.15 3.96-.153.741-.715 4.063-.051.536-.23 1.354-.255.69-1.737.843l-2.12.102q-.818.102-.87.102-1.2 0-1.43-.92-.154-.715-.511-2.146-.869-3.168-2.606-7.128-.18 1.303-.18 2.862 0 1.252.154 3.755.154 2.504.154 3.756 0 1.124-.511 1.278-.46-.052-.971-.052-.562 0-1.687.077-1.098.077-1.66.077-.767 0-1.406-.102-.23-.741-.204-1.712v-.307q0-.536.051-1.533l.026-.383q-.026-.051 0-.128.025.026 0 .026-.026-.741-.026-1.584 0-2.887.307-9.428.28-6.08.23-9.402l.306-.307H81.4q.51.486.843 1.457.153.562.51 1.66.282.69.793 2.07.638 1.712 1.686 4.65 1.507 4.267 2.734 6.592.102-.18.638-1.482.256-.537.69-1.635.026-.103.358-1.227 1.66-5.672 2.76-11.267.357-.204.92-.204.561 0 1.123.153.562.128 1.457.204.996.077 1.328.588.639 11.344 2.76 22.764z" aria-label="ZigNum"/>
</svg>
