<?xml version="1.0" encoding="UTF-8" standalone="no"?>
<svg
   viewBox="0 0 55.672001 55.672"
   version="1.1"
   id="svg1"
   width="55.672001"
   height="55.672001"
   xmlns="http://www.w3.org/2000/svg"
   xmlns:svg="http://www.w3.org/2000/svg">
  <defs
     id="defs1" />
  <path
     fill="#3399dd"
     d="m 27.446116,5.4625129 -0.613,4.012 c -1.192,1.1920001 -3.108,3.0230001 -5.748,5.4930001 -2.521333,2.367333 -4.429,4.206667 -5.723,5.518 1.975333,-0.05067 4.964333,-0.195333 8.967,-0.434 0,0.698 -0.178667,2.341333 -0.536,4.93 l -0.307,0.282 c -0.646667,0.034 -2.81,0.161667 -6.49,0.383 l -12.3399996,0.792 -0.23,-0.204 0.307,-3.96 12.7239996,-11.676 -10.6289996,-0.307 c -0.034,-0.272667 -0.051,-0.5793334 -0.051,-0.9200001 0,-0.528 0.068,-1.3796667 0.204,-2.555 0.12,-1.1066667 0.1713333,-1.9583333 0.154,-2.555 0.34,-0.2893333 0.8,-0.434 1.38,-0.434 0.1533333,0 0.3916667,0.017 0.715,0.051 0.3233333,0.017333 0.5616667,0.026 0.715,0.026 h 1.2529996 c 0.766,0 1.481,0.025333 2.145,0.076 l 13.797,1.201 z m 6.311,-0.383 c -0.255333,1.9586667 -0.383,4.4626667 -0.383,7.5120001 l -0.026,6.157 c 0.01733,0.783333 6.67e-4,1.95 -0.05,3.5 l -0.282,0.153 -4.47,0.103 c -0.375333,-0.238667 -0.563,-0.613667 -0.563,-1.125 0,-0.221333 0.034,-0.561667 0.102,-1.021 0.068,-0.477333 0.102,-0.844 0.102,-1.1 0,-0.17 0.03433,-0.783 0.103,-1.839 0.306667,-5.28 0.46,-8.3630001 0.46,-9.2490001 0,-1.0733333 -0.03433,-2.078 -0.103,-3.014 0.08533,-0.1366667 0.400667,-0.29 0.946,-0.46 0.153333,0.033333 0.408667,0.05 0.766,0.05 0.187333,0 0.477,-0.00833 0.869,-0.025 0.391333,-0.016667 0.689333,-0.025 0.894,-0.025 0.698,0 1.243,0.1276667 1.635,0.383 z m 14.154,5.4420001 c 0,0.374667 -0.01667,0.766333 -0.05,1.175 -0.682,0.204667 -2.402667,0.358 -5.162,0.46 -0.17,-0.153333 -0.306,-0.63 -0.408,-1.43 -0.102667,-0.682 -0.341333,-1.0653334 -0.716,-1.1500001 h -0.409 c -1.311333,0 -2.171333,0.1276667 -2.58,0.383 -0.545333,0.3400001 -0.818,1.2766671 -0.818,2.8100001 v 0.46 c 0.01733,0.187333 0.026,0.332333 0.026,0.435 0,0.357333 -0.034,0.885333 -0.102,1.584 -0.05133,0.698 -0.077,1.226 -0.077,1.584 0,1.737333 0.519667,2.853 1.559,3.347 0.408667,0.186667 0.936667,0.28 1.584,0.28 0.851333,0 1.473,-0.161667 1.865,-0.485 0.493333,-0.408667 0.731667,-0.843 0.715,-1.303 v -0.076 l -0.255,-0.281 h -2.173 c -0.715333,0 -1.226333,-0.153333 -1.533,-0.46 v -4.37 l 0.255,-0.28 c 1.635333,0.136 3.986,0.289333 7.052,0.46 l 0.256,0.28 c 0.01667,0.222 0.059,0.920667 0.127,2.096 0.068,0.851333 0.102,1.549667 0.102,2.095 0,1.856667 -0.408667,3.202333 -1.226,4.037 -1.192,1.226667 -2.886667,1.84 -5.084,1.84 -1.822667,0 -3.347333,-0.46 -4.574,-1.38 -0.783333,-0.58 -1.311333,-1.414667 -1.584,-2.504 -0.186667,-0.716 -0.28,-1.721 -0.28,-3.015 v -1.789 c 0,-3.474667 0.102,-5.7653334 0.306,-6.8720001 0.136,-0.8006667 0.451,-1.5416667 0.945,-2.223 0.545333,-0.7666667 1.116,-1.218 1.712,-1.354 0.204667,-0.051333 0.996667,-0.1793333 2.376,-0.384 1.448,-0.204 2.410333,-0.306 2.887,-0.306 1.124667,0 2.095667,0.17 2.913,0.51 0.238667,0.1026667 0.366333,0.1626667 0.383,0.18 0.324,0.3066667 0.656333,0.6386667 0.997,0.996 0.03333,0.034 0.11,0.1956667 0.23,0.485 0.493333,1.1246667 0.74,2.513 0.74,4.1650001 z M 15.661,27.751488 c 0,0.102 -0.04233,0.451 -0.127,1.047 -0.102667,0.681333 -0.205,2.018666 -0.307,4.012 -0.153333,2.606 -0.23,5.518333 -0.23,8.737 0,0.324 0.034,3.560666 0.102,9.71 l -0.51,0.433 -4.7019996,-0.153 -0.383,-0.383 c -0.7666666,-2.776667 -2.2996666,-7.009334 -4.599,-12.698 v 0.639 c 0,1.294 0.085333,2.835333 0.256,4.624 0.136,1.158 0.2976667,2.87 0.485,5.136 -0.596,0.374666 -1.4393333,0.562 -2.53,0.562 -0.3066666,0 -0.775,-0.02567 -1.405,-0.077 -0.6133333,-0.034 -1.06466656,-0.051 -1.35399996,-0.051 L 4.4250488e-7,48.957488 C 0.28933384,44.545488 0.43400044,39.963488 0.43400044,35.211488 c 0,-2.060667 -0.025667,-4.13 -0.077,-6.208 0.29,-0.306667 0.74133336,-0.46 1.35399996,-0.46 0.12,0 0.282,0.0083 0.486,0.025 0.2213334,0.01733 0.3913334,0.026 0.51,0.026 0.256,0 0.6393334,-0.051 1.15,-0.153 0.5286667,-0.12 0.9206667,-0.18 1.176,-0.18 0.2213334,0 0.4256667,0.03433 0.613,0.103 0.3746667,0.562 0.698,1.345333 0.97,2.35 0.4266667,1.533333 0.6566667,2.351 0.69,2.453 0.3066667,0.886 0.622,1.780333 0.946,2.683 0.3746667,1.022 0.7493334,1.890666 1.124,2.606 0.085333,-0.953334 0.128,-2.026667 0.128,-3.22 0,-0.868 -0.034,-2.162334 -0.102,-3.883 -0.068667,-1.737334 -0.103,-3.040334 -0.103,-3.909 0,-0.186667 0.1366667,-0.34 0.41,-0.46 0.084667,-0.01667 0.2206667,-0.05067 0.4079996,-0.102 l 0.204,-0.077 h 5.136 c 0.136,0.238666 0.204,0.554 0.204,0.946 z m 15.636,12.289 c 0,2.47 -0.110667,4.701333 -0.332,6.694 -0.425333,0.834666 -0.757333,1.345666 -0.996,1.533 -0.392,0.186666 -0.903,0.442 -1.533,0.766 -0.902667,0.46 -1.992667,0.69 -3.27,0.69 -0.528,0 -1.294667,-0.034 -2.3,-0.102 -0.153333,-0.034 -0.374667,-0.07667 -0.664,-0.128 -0.289333,-0.05067 -0.885667,-0.161334 -1.789,-0.332 -1.498667,-0.272667 -2.563,-0.664334 -3.193,-1.175 -0.818,-0.664667 -1.227,-1.703667 -1.227,-3.117 0,-0.374667 0.03433,-0.936667 0.103,-1.686 0.068,-0.75 0.102,-1.312334 0.102,-1.687 v -0.357 c -0.01733,-0.153334 -0.026,-0.272667 -0.026,-0.358 0,0.034 0.051,-0.604667 0.153,-1.916 l 0.282,-4.037 c 0.17,-2.367334 0.519,-4.266667 1.047,-5.698 0.426,-0.357334 0.996667,-0.536 1.712,-0.536 0.391333,0 0.740333,0.04267 1.047,0.128 0.494,0.136 0.741,0.340333 0.741,0.613 0,1.584 -0.051,3.670666 -0.153,6.26 -0.136,3.236 -0.212667,5.313666 -0.23,6.233 v 0.128 c -0.01667,0.358 0.077,0.698666 0.281,1.022 0.204667,0.324 0.485667,0.528333 0.843,0.613 0.29,0.06867 0.682,0.103 1.176,0.103 0.817333,0 1.294,-0.247 1.43,-0.741 0.05133,-0.187334 0.077,-0.903 0.077,-2.147 0,-0.698 -0.034,-1.745334 -0.102,-3.142 -0.05133,-1.396667 -0.077,-2.444334 -0.077,-3.143 0,-2.009334 0.179,-3.763667 0.537,-5.263 0.902667,-0.408667 1.873333,-0.613 2.912,-0.613 1.106667,0 2.069,0.23 2.887,0.69 0.136667,0.374666 0.205,0.868666 0.205,1.482 0,0.476666 0.034,1.226 0.102,2.248 0.17,2.333333 0.255,4.658333 0.255,6.975 z m 24.374,11.267 -0.153,0.23 h -0.74 c -1.601333,0.01733 -3.092,-0.08467 -4.472,-0.306 -0.204,-0.324 -0.306,-0.75 -0.306,-1.278 0,-0.476667 -0.04267,-1.166667 -0.128,-2.07 -0.08533,-1.345334 -0.179,-2.690667 -0.281,-4.036 -0.102667,-1.601334 -0.281667,-2.93 -0.537,-3.986 -0.442667,1.106666 -0.826,2.426666 -1.15,3.96 -0.102,0.494 -0.340333,1.848333 -0.715,4.063 -0.034,0.357333 -0.110667,0.808666 -0.23,1.354 -0.17,0.46 -0.749,0.741 -1.737,0.843 l -2.12,0.102 c -0.545333,0.068 -0.835333,0.102 -0.87,0.102 -0.8,0 -1.276667,-0.306667 -1.43,-0.92 -0.102667,-0.476667 -0.273,-1.192 -0.511,-2.146 -0.579333,-2.112 -1.448,-4.488 -2.606,-7.128 -0.12,0.868666 -0.18,1.822666 -0.18,2.862 0,0.834666 0.05133,2.086333 0.154,3.755 0.102667,1.669333 0.154,2.921333 0.154,3.756 0,0.749333 -0.170333,1.175333 -0.511,1.278 -0.306667,-0.03467 -0.630333,-0.052 -0.971,-0.052 -0.374667,0 -0.937,0.02567 -1.687,0.077 -0.732,0.05133 -1.285333,0.077 -1.66,0.077 -0.511333,0 -0.98,-0.034 -1.406,-0.102 -0.153333,-0.494 -0.221333,-1.064667 -0.204,-1.712 v -0.307 c 0,-0.357334 0.017,-0.868334 0.051,-1.533 l 0.026,-0.383 c -0.01733,-0.034 -0.01733,-0.07667 0,-0.128 0.01667,0.01733 0.01667,0.026 0,0.026 -0.01733,-0.494 -0.026,-1.022 -0.026,-1.584 0,-1.924667 0.102333,-5.067334 0.307,-9.428 0.186667,-4.053334 0.263333,-7.187334 0.23,-9.402 l 0.306,-0.307 h 4.804 c 0.34,0.324 0.621,0.809666 0.843,1.457 0.102,0.374666 0.272,0.928 0.51,1.66 0.188,0.46 0.452333,1.15 0.793,2.07 0.425333,1.141333 0.987333,2.691333 1.686,4.65 1.004667,2.844666 1.916,5.042 2.734,6.592 0.068,-0.12 0.280667,-0.614 0.638,-1.482 0.170667,-0.358 0.400667,-0.903 0.69,-1.635 0.01733,-0.06867 0.136667,-0.477667 0.358,-1.227 1.106667,-3.781334 2.026667,-7.537 2.76,-11.267 0.238,-0.136 0.544667,-0.204 0.92,-0.204 0.374,0 0.748333,0.051 1.123,0.153 0.374667,0.08533 0.860333,0.153333 1.457,0.204 0.664,0.05133 1.106667,0.247333 1.328,0.588 0.426,7.562666 1.346,15.150666 2.76,22.764 z"
     aria-label="ZigNum"
     id="path1" />
</svg>
